Coordinates
version=1
nRows=19
nColumns=63
inDegrees=yes

Units are S.I. units (second, meters, Newtons, ...)
If the header above contains a line with 'inDegrees', this indicates whether rotational values are in degrees (yes) or radians (no).

endheader
time	pelvis_tilt	pelvis_list	pelvis_rotation	pelvis_tx	pelvis_ty	pelvis_tz	hip_flexion_r	hip_adduction_r	hip_rotation_r	knee_angle_r	knee_angle_r_beta	ankle_angle_r	subtalar_angle_r	mtp_angle_r	hip_flexion_l	hip_adduction_l	hip_rotation_l	knee_angle_l	knee_angle_l_beta	ankle_angle_l	subtalar_angle_l	mtp_angle_l	L5_S1_Flex_Ext	L5_S1_Lat_Bending	L5_S1_axial_rotation	L4_L5_Flex_Ext	L4_L5_Lat_Bending	L4_L5_axial_rotation	L3_L4_Flex_Ext	L3_L4_Lat_Bending	L3_L4_axial_rotation	L2_L3_Flex_Ext	L2_L3_Lat_Bending	L2_L3_axial_rotation	L1_L2_Flex_Ext	L1_L2_Lat_Bending	L1_L2_axial_rotation	L1_T12_Flex_Ext	L1_T12_Lat_Bending	L1_T12_axial_rotation	Abs_r3	Abs_r2	Abs_r1	Abs_t1	Abs_t2	neck_flexion	neck_bending	neck_rotation	arm_flex_r	arm_add_r	arm_rot_r	elbow_flex_r	pro_sup_r	wrist_flex_r	wrist_dev_r	arm_flex_l	arm_add_l	arm_rot_l	elbow_flex_l	pro_sup_l	wrist_flex_l	wrist_dev_l
6.444444	-2.653210	-2.175119	89.211322	-0.099014	0.751687	0.720726	7.775564	-7.349833	-16.681024	19.301613	0.336877	35.766095	16.330149	0.000000	8.439192	2.880264	-14.165564	16.365563	0.285633	38.094501	14.989991	0.000000	-0.196216	-0.110329	-0.146248	-0.364393	-0.146738	-0.155389	-0.322364	-0.268255	-0.155389	-0.224255	-0.268255	-0.127967	-0.182206	-0.224983	-0.118827	-0.112118	-0.170900	-0.109686	-1.401552	-1.248067	-0.813389	0.000000	0.000000	16.692418	-1.834643	2.743964	8.971145	-12.137325	117.970436	7.506715	11.366353	-8.992452	-15.103690	-1.606113	-16.346083	29.287776	29.771793	85.891619	-12.171802	-3.154271
6.472222	-2.728644	-2.063795	88.811809	-0.098313	0.751641	0.720640	7.803287	-7.391447	-16.237815	19.462711	0.339688	35.846516	16.318754	0.000000	8.250478	2.900757	-14.556873	16.265523	0.283887	38.129542	15.001984	0.000000	-0.202875	-0.104590	-0.170302	-0.376760	-0.139104	-0.180946	-0.333304	-0.254300	-0.180946	-0.231866	-0.254300	-0.149014	-0.188390	-0.213279	-0.138370	-0.115923	-0.162010	-0.127726	-1.449118	-1.183141	-0.947167	0.000000	0.000000	15.400732	-1.876317	3.211683	9.585233	-11.847997	124.824631	6.338856	6.750298	-8.752113	-15.818555	-1.737176	-16.316891	28.846853	29.994735	85.692693	-11.656858	-2.382312
6.500000	-2.758441	-2.012617	88.445600	-0.097708	0.751627	0.720517	7.834846	-7.372712	-15.806706	19.518995	0.340671	35.869979	16.292744	0.000000	8.107820	2.892822	-14.873098	16.130110	0.281524	38.140961	14.966035	0.000000	-0.202317	-0.098096	-0.163902	-0.375723	-0.130468	-0.174146	-0.332387	-0.238511	-0.174146	-0.231228	-0.238511	-0.143414	-0.187872	-0.200038	-0.133170	-0.115604	-0.151951	-0.122926	-1.445130	-1.109685	-0.911573	0.000000	0.000000	14.432887	-1.983602	3.523799	9.987684	-11.652053	130.260891	5.421047	2.976681	-8.539435	-16.420374	-1.696927	-16.274558	28.817704	30.124965	85.447271	-10.985266	-1.448007
6.527778	-2.731888	-2.021455	88.120163	-0.097205	0.751636	0.720406	7.857277	-7.278767	-15.405238	19.444108	0.339364	35.812333	16.254160	0.000000	8.019209	2.844800	-15.106845	15.967533	0.278686	38.132801	14.878067	0.000000	-0.197099	-0.090232	-0.125949	-0.366032	-0.120008	-0.133821	-0.323814	-0.219390	-0.133821	-0.225264	-0.219390	-0.110206	-0.183026	-0.184001	-0.102334	-0.112622	-0.139769	-0.094462	-1.407858	-1.020720	-0.700493	0.000000	0.000000	13.876270	-2.203820	3.560317	10.168607	-11.553938	134.050162	4.783354	0.213746	-8.410847	-16.896863	-1.470258	-16.206022	29.159934	30.139071	85.150409	-10.118947	-0.380092
6.555556	-2.679924	-2.070812	87.872193	-0.096821	0.751687	0.720339	7.852069	-7.158112	-15.141572	19.260737	0.336163	35.696231	16.284067	0.000000	7.977702	2.785967	-15.246290	15.799688	0.275757	38.098373	14.776136	0.000000	-0.191718	-0.084980	-0.067192	-0.356040	-0.113023	-0.071392	-0.314974	-0.206621	-0.071392	-0.219115	-0.206621	-0.058793	-0.178030	-0.173291	-0.054594	-0.109548	-0.131634	-0.050394	-1.369425	-0.961311	-0.373703	0.000000	0.000000	13.774321	-2.384769	3.451437	10.159498	-11.541378	136.007243	4.431035	-1.333775	-8.335575	-17.219648	-1.059340	-16.143200	29.905020	30.025361	84.859405	-9.161373	0.611283
6.583333	-2.602197	-2.160784	87.698545	-0.096536	0.751764	0.720292	7.823465	-7.004949	-14.965489	18.976694	0.331206	35.522290	16.320399	0.000000	7.987845	2.713979	-15.286390	15.638369	0.272941	38.041130	14.635434	0.000000	-0.184809	-0.082364	0.012194	-0.343209	-0.109544	0.012956	-0.303623	-0.200259	0.012956	-0.211219	-0.200259	0.010670	-0.171614	-0.167956	0.009907	-0.105600	-0.127581	0.009145	-1.320075	-0.931715	0.067818	0.000000	0.000000	14.125498	-2.565469	3.247746	9.935841	-11.625951	135.856331	4.428011	-1.492983	-8.337239	-17.352845	-0.497821	-16.086758	30.999667	29.814211	84.561445	-8.146771	1.598625
6.611111	-2.508961	-2.297099	87.611858	-0.096368	0.751831	0.720228	7.792128	-6.838832	-14.899035	18.631718	0.325185	35.313520	16.373600	0.000000	8.057113	2.639977	-15.224757	15.489449	0.270342	37.969673	14.466039	0.000000	-0.174363	-0.085065	0.108701	-0.323809	-0.113137	0.115495	-0.286460	-0.206828	0.115495	-0.199279	-0.206828	0.095113	-0.161913	-0.173465	0.088320	-0.099631	-0.131766	0.081526	-1.245455	-0.962276	0.604563	0.000000	0.000000	14.900127	-2.684398	3.011002	9.481552	-11.796605	133.382599	4.797078	-0.084471	-8.387885	-17.231377	0.164100	-16.050510	32.347552	29.531133	84.334186	-7.184735	2.535752
6.638889	-2.401870	-2.478480	87.568471	-0.096301	0.751886	0.720145	7.774884	-6.661895	-14.911172	18.242176	0.318386	35.072344	16.448630	0.000000	8.180457	2.554274	-15.144792	15.353506	0.267969	37.891729	14.324313	0.000000	-0.161479	-0.094339	0.238054	-0.299882	-0.125470	0.252933	-0.265293	-0.229375	0.252933	-0.184554	-0.229375	0.208297	-0.149949	-0.192375	0.193419	-0.092269	-0.146131	0.178541	-1.153426	-1.067177	1.323986	0.000000	0.000000	16.065212	-2.909155	2.589632	8.783076	-12.064839	128.451386	5.561335	2.970054	-8.546254	-16.880194	0.973186	-16.021539	34.077735	29.071855	84.160945	-6.385692	3.196865
6.666667	-2.313818	-2.705639	87.565901	-0.096207	0.751982	0.720036	7.789366	-6.500580	-14.977537	17.834754	0.311275	34.813829	16.525467	0.000000	8.350019	2.483225	-15.057502	15.216020	0.265570	37.786000	14.219387	0.000000	-0.147106	-0.116629	0.386039	-0.273191	-0.155116	0.410166	-0.241680	-0.283571	0.410166	-0.168127	-0.283571	0.337784	-0.136603	-0.237830	0.313656	-0.084056	-0.180658	0.289529	-1.050764	-1.319329	2.147031	0.000000	0.000000	17.587292	-3.189220	2.128085	8.340550	-12.061799	127.041941	5.608904	2.865760	-8.323932	-16.879364	1.886217	-16.051965	36.101907	28.476224	84.024847	-5.785817	3.657994
6.694444	-2.216775	-2.964874	87.612969	-0.096167	0.752087	0.719985	7.839613	-6.336389	-15.117616	17.437346	0.304339	34.549022	16.613984	0.000000	8.577027	2.404430	-14.916093	15.115152	0.263809	37.668091	14.091697	0.000000	-0.137754	-0.147295	0.551616	-0.255824	-0.195903	0.586092	-0.226317	-0.358134	0.586092	-0.157439	-0.358134	0.482664	-0.127919	-0.300365	0.448188	-0.078713	-0.228161	0.413712	-0.983965	-1.666236	3.067923	0.000000	0.000000	19.445591	-3.613936	1.595493	7.900054	-12.013804	125.439338	5.648424	2.764189	-8.057404	-16.835659	2.944754	-16.120735	38.467465	27.758817	83.895055	-5.404441	3.903523
6.722222	-2.116331	-3.248797	87.690552	-0.096159	0.752187	0.720012	7.944013	-6.181578	-15.324884	17.092635	0.298323	34.296824	16.723442	0.000000	8.858283	2.315660	-14.770514	15.062723	0.262894	37.549311	13.980630	0.000000	-0.133298	-0.185276	0.725413	-0.247548	-0.246417	0.770751	-0.218995	-0.450480	0.770751	-0.152346	-0.450480	0.634737	-0.123780	-0.377815	0.589398	-0.076166	-0.286993	0.544060	-0.952134	-2.095881	4.034530	0.000000	0.000000	21.448750	-4.177373	1.084706	7.507830	-11.934764	123.630011	5.719497	2.694510	-7.689439	-16.716450	4.069394	-16.223135	40.894368	26.996234	83.815169	-5.220824	3.990215
6.750000	-2.019842	-3.548001	87.756722	-0.096133	0.752265	0.720080	8.098915	-6.034726	-15.540793	16.796686	0.293157	34.063526	16.839053	0.000000	9.161275	2.224119	-14.662273	15.020694	0.262161	37.435184	13.901076	0.000000	-0.130255	-0.228174	0.898547	-0.241896	-0.303472	0.954707	-0.213996	-0.554783	0.954707	-0.148868	-0.554783	0.786229	-0.120955	-0.465293	0.730070	-0.074428	-0.353442	0.673911	-0.930398	-2.581153	4.997451	0.000000	0.000000	23.341722	-4.767269	0.819031	7.183079	-11.825333	121.768875	5.818673	2.674151	-7.258705	-16.520666	5.172328	-16.359879	43.229819	26.267615	83.666609	-5.195953	4.013859
6.777778	-1.938573	-3.827380	87.836252	-0.096090	0.752307	0.720219	8.285263	-5.915614	-15.767903	16.597780	0.289686	33.867774	16.919336	0.000000	9.463428	2.137781	-14.600221	15.015114	0.262063	37.337161	13.873411	0.000000	-0.131907	-0.275842	1.042005	-0.244964	-0.366870	1.107130	-0.216710	-0.670682	1.107130	-0.150756	-0.670682	0.911755	-0.122489	-0.562497	0.846629	-0.075372	-0.427279	0.781504	-0.942198	-3.120377	5.795320	0.000000	0.000000	24.923334	-5.254530	0.958614	6.981987	-11.651560	120.214655	5.915131	2.604720	-6.828118	-16.220346	6.105440	-16.515119	44.944354	25.682094	83.693125	-5.216422	4.025253
6.805556	-1.873783	-4.055026	87.918520	-0.096036	0.752311	0.720405	8.473629	-5.830731	-15.998034	16.508799	0.288133	33.718399	16.976869	0.000000	9.724584	2.063301	-14.572194	15.036609	0.262438	37.261617	13.870315	0.000000	-0.138694	-0.325766	1.147870	-0.257568	-0.433268	1.219612	-0.227860	-0.792067	1.219612	-0.158513	-0.792067	1.004386	-0.128791	-0.664301	0.932644	-0.079249	-0.504611	0.860902	-0.990674	-3.685127	6.384108	0.000000	0.000000	26.003934	-5.659438	1.519331	6.927233	-11.438660	118.794506	6.059676	2.585528	-6.366891	-15.882319	6.835160	-16.697137	46.127012	25.274707	83.723166	-5.367325	4.038017
6.833333	-1.824653	-4.205687	88.007230	-0.095964	0.752272	0.720663	8.641486	-5.781611	-16.238130	16.539174	0.288663	33.622461	17.009349	0.000000	9.934687	1.996976	-14.558601	15.115450	0.263814	37.231554	13.884936	0.000000	-0.153605	-0.376353	1.212874	-0.285260	-0.500550	1.288679	-0.252358	-0.915065	1.288679	-0.175555	-0.915065	1.061265	-0.142638	-0.767460	0.985460	-0.087770	-0.582971	0.909656	-1.097187	-4.257384	6.745642	0.000000	0.000000	26.507671	-6.017055	2.473930	7.037689	-11.176915	117.872173	6.193134	2.567490	-5.927097	-15.484292	7.308643	-16.866470	46.568598	25.093206	83.900179	-5.604794	4.109457
6.861111	-1.828714	-4.298343	88.089111	-0.095769	0.752157	0.720910	8.805842	-5.794074	-16.427939	16.681391	0.291145	33.592499	16.973051	0.000000	10.087076	1.968736	-14.642459	15.209078	0.265448	37.233306	14.003337	0.000000	-0.171292	-0.433537	1.247377	-0.318107	-0.576605	1.325339	-0.281416	-1.054103	1.325339	-0.195770	-1.054103	1.091455	-0.159062	-0.884069	1.013494	-0.097876	-0.671549	0.935533	-1.223525	-4.904260	6.937539	0.000000	0.000000	26.373532	-6.193527	3.790875	7.256713	-10.853245	117.160989	6.341743	2.583962	-5.487845	-15.098219	7.510744	-17.072810	46.333163	25.164105	84.137120	-5.882975	4.252299
6.888889	-1.879724	-4.353402	88.206587	-0.095500	0.751956	0.721123	8.958268	-5.864687	-16.623590	16.897760	0.294922	33.628824	16.904997	0.000000	10.203750	1.988076	-14.698613	15.313625	0.267273	37.253850	14.127315	0.000000	-0.190144	-0.496876	1.255656	-0.353116	-0.660845	1.334135	-0.312387	-1.208104	1.334135	-0.217315	-1.208104	1.098699	-0.176568	-1.013229	1.020221	-0.108648	-0.769661	0.941742	-1.358178	-5.620759	6.983584	0.000000	0.000000	25.663807	-6.165911	5.406726	7.534168	-10.473114	116.686684	6.467152	2.565071	-5.038041	-14.731118	7.479069	-17.309639	45.454413	25.444149	84.502962	-6.157464	4.472028
6.916667	-1.973476	-4.388813	88.338816	-0.095175	0.751674	0.721298	9.110485	-5.983918	-16.795938	17.163966	0.299568	33.721468	16.800298	0.000000	10.298039	2.053528	-14.729386	15.417149	0.269080	37.282380	14.235348	0.000000	-0.208217	-0.564848	1.252422	-0.386680	-0.751248	1.330698	-0.342080	-1.373372	1.330698	-0.237972	-1.373372	1.095869	-0.193351	-1.151839	1.017593	-0.118975	-0.874950	0.939316	-1.487275	-6.389677	6.965594	0.000000	0.000000	24.509803	-6.000290	7.169072	7.826511	-10.072047	116.195118	6.605102	2.547350	-4.569076	-14.427175	7.303856	-17.571650	44.198592	25.823587	84.887746	-6.417469	4.681731
6.944444	-2.094488	-4.414044	88.489464	-0.094825	0.751330	0.721433	9.260161	-6.135666	-16.957302	17.458799	0.304714	33.866218	16.676470	0.000000	10.380295	2.144296	-14.772304	15.525670	0.270974	37.328846	14.380094	0.000000	-0.224449	-0.634228	1.241410	-0.416824	-0.843523	1.318998	-0.368747	-1.542061	1.318998	-0.256523	-1.542061	1.086234	-0.208423	-1.293317	1.008645	-0.128250	-0.982418	0.931057	-1.603215	-7.174509	6.904349	0.000000	0.000000	23.062032	-5.723341	8.998672	8.104490	-9.662556	115.830119	6.726204	2.528280	-4.163129	-14.183599	7.031319	-17.835423	42.680344	26.240607	85.287398	-6.610020	4.875906
